<svg width="464" height="459" viewBox="0 0 464 459" fill="none" xmlns="http://www.w3.org/2000/svg">
<rect x="142" y="130" width="314" height="226" rx="56" fill="#3282B8"/>
<path d="M406.184 339.658C406.331 334.725 402.021 330.836 397.129 331.489L322.165 341.492C315.407 342.394 312.802 350.795 317.865 355.362L390.569 420.954C395.631 425.521 403.721 422.068 403.924 415.253L406.184 339.658Z" fill="#3282B8"/>
<rect width="345" height="243" rx="56" fill="#D9D9D9"/>
<path d="M57.9183 229.666C57.7708 224.733 62.0811 220.844 66.9728 221.497L141.937 231.5C148.695 232.402 151.3 240.803 146.238 245.37L73.5333 310.962C68.471 315.529 60.3818 312.075 60.178 305.261L57.9183 229.666Z" fill="#D9D9D9"/>
<ellipse cx="231.5" cy="279" rx="20.5" ry="21" fill="#D9D9D9"/>
<ellipse cx="298.5" cy="279" rx="20.5" ry="21" fill="#D9D9D9"/>
<ellipse cx="371.5" cy="279" rx="20.5" ry="21" fill="#D9D9D9"/>
<path d="M108.942 189H79.2827L124.474 58.0909H160.142L205.27 189H175.611L142.82 88.0057H141.797L108.942 189ZM107.088 137.544H177.145V159.149H107.088V137.544ZM248.704 58.0909V189H221.026V58.0909H248.704Z" fill="#3282B8"/>
</svg>
