<svg width="546" height="941" viewBox="0 0 546 941" fill="none" xmlns="http://www.w3.org/2000/svg">
<path d="M101.608 574.5C107.208 601.7 133.774 601.167 146.108 597C98.5077 669.4 31.6077 708.833 4.10767 719.5C0.107666 722 -0.392334 718.5 0.607666 716.5C1.50209 714.711 19.441 644.167 28.1077 609C48.1077 612 56.6077 607.5 63.6077 604C70.0575 600.775 91.7743 583.333 101.608 574.5Z" fill="#545454"/>
<path d="M194.608 646.5C190.608 652.5 160.608 677.667 146.108 689.5L106.108 901C172.108 888.5 181.108 817.5 183.608 802.5C185.608 790.5 191.774 693.5 194.608 646.5Z" fill="#515152"/>
<path d="M77.1076 722C89.5076 721.6 118.274 703.833 131.108 695C122.941 740.833 105.908 835.4 103.108 847C99.6076 861.5 84.1076 935.5 22.1076 940.5C19.9409 941 16.0076 941 17.6076 937C19.2076 933 57.9409 792 77.1076 722Z" fill="#515152"/>
<path d="M255.108 677C237.108 677 232.608 693.333 232.608 701.5C257.774 702 312.108 703 328.108 703C348.108 703 367.608 736.5 371.108 741.5C373.908 745.5 377.274 744.167 378.608 743C386.608 732.6 376.941 711.333 371.108 702C375.108 702 385.908 702.2 397.108 703C411.108 704 432.108 732.5 437.608 737.5C442.008 741.5 445.108 736.833 446.108 734C447.308 692.8 413.941 678.833 397.108 677H255.108Z" fill="#FCF1DD"/>
<path d="M372.607 610C364.607 617.2 326.941 637 309.107 646C315.607 664 328.607 672 352.107 662.5C370.907 654.9 373.607 624.333 372.607 610Z" fill="#545454"/>
<path d="M324.108 0.499516C405.308 -5.10048 456.274 46.4995 471.608 72.9995C470.808 76.1991 443.608 74.3327 430.108 72.9995C410.274 113.833 383.208 206.1 433.608 248.5C496.608 301.5 506.608 355.5 482.108 455.5C457.608 555.5 318.608 629.5 314.608 632C310.608 634.5 301.608 635 307.108 632C312.608 629 315.608 604.5 316.108 599C316.508 594.6 313.608 594.5 312.108 595C303.108 602 306.608 601 302.608 616.5C298.608 632 278.108 676.5 246.108 667C220.508 659.4 216.441 632.833 217.608 620.5C356.108 498.5 368.608 399 352.608 342.5C336.608 286 289.608 251.5 248.608 241.5C207.608 231.5 174.608 249.5 171.608 250.5C168.608 251.5 168.608 249.5 168.108 248.5C167.608 247.5 167.608 162.5 168.108 141C168.608 119.5 182.108 93 184.608 87.5C187.108 82 222.608 7.49952 324.108 0.499516Z" fill="#545454"/>
<path d="M442.108 234.001V186.001C442.108 183.501 443.047 183.147 444.108 183.501C445.606 184 448.603 185.998 460.581 193.983L460.608 194.001C472.608 202.001 485.608 204.001 486.608 204.501C487.408 204.901 486.941 206.667 486.608 207.501C474.108 226.001 446.608 236.501 444.108 236.501C442.108 236.501 441.941 234.834 442.108 234.001Z" fill="#FF6E4E"/>
<path d="M443.608 166.5V89.4999C450.108 69.9999 488.108 81.9999 494.608 85.4999C501.108 88.9999 541.108 112 545.108 162C549.108 212 516.108 238 513.108 239C510.708 239.8 510.108 237.333 510.108 236C510.608 207.5 495.608 196 488.108 193.5C482.108 191.5 455.941 174.667 443.608 166.5Z" fill="#FF6E4E"/>
<path d="M430.608 244.504V74.004C427.608 67.5039 415.108 42.8035 369.108 40.0035C311.608 36.5035 282.608 79 272.108 99.504C261.609 120.005 266.108 192.504 320.608 230.004C364.208 260.004 412.108 252.17 430.608 244.504Z" fill="#FCF1DD"/>
<circle cx="23" cy="23" r="23" transform="matrix(-1 0 0 1 383.608 88)" fill="#2B2B2E"/>
<path d="M79.1076 396.5C72.7794 414.5 67.6076 436 75.1076 440.5C90.3243 472.563 144.52 461 204.108 461C279.494 461 344.608 444.603 344.608 377.5C344.608 373.129 344.391 368.791 343.964 364.5C337.846 302.912 288.584 251 218.108 251C174.151 251 139.864 278.708 116.108 314.5C99.1211 340.092 88.4883 369.817 79.1076 396.5Z" fill="#F16C4A"/>
<path d="M311.608 492.5C344.408 444.1 346.941 387 344.108 364.5C319.608 414.5 282.108 426.5 267.108 430C252.108 433.5 242.294 416.404 241.608 414C240.608 410.5 239.774 398.667 239.608 392C229.108 412 202.608 432 182.108 429C161.608 426 158.08 410.278 157.608 406.5C157.108 402.5 158.108 388.333 159.108 381C147.608 401.5 120.608 419.5 104.108 426C90.9077 431.2 76.6077 428.167 71.1077 426C68.3077 428.8 42.2743 541.167 29.6077 597C28.941 598 31.7077 599.8 48.1077 599C68.6077 598 93.6077 565.5 99.1077 559.5C103.508 554.7 117.274 529.833 123.608 518C118.608 535.5 94.6077 581.5 132.108 589C162.108 595 197.274 537.833 211.108 508.5C207.608 519 191.608 564 214.608 570C237.608 576 270.608 553 311.608 492.5Z" fill="#FAB03D"/>
<path d="M191.608 562C205.108 592.5 241.274 577.333 256.108 565.5C215.108 631.5 76.3195 694.596 70.6077 696.5C67.6077 697.5 67.6077 696.5 69.1077 695.5C76.6077 691.5 154.608 606.667 191.608 562Z" fill="#545454"/>
</svg>
