<svg width="533" height="374" viewBox="0 0 533 374" fill="none" xmlns="http://www.w3.org/2000/svg">
<path d="M91.5001 305.5C93.1001 249.5 140.5 207.834 164 194C158.833 187.667 134.3 176.3 77.5 181.5C20.7 186.7 2.83338 234.667 1.00007 258C0.666738 264.667 0.200071 280.6 1.00007 291C1.80007 301.4 12.6667 305 18.0001 305.5H91.5001Z" fill="#D9D9D9"/>
<path d="M441.5 305.5C439.9 249.5 392.5 207.834 369 194C374.167 187.667 398.7 176.3 455.5 181.5C512.3 186.7 530.167 234.667 532 258C532.333 264.667 532.8 280.6 532 291C531.2 301.4 520.333 305 515 305.5H441.5Z" fill="#D9D9D9"/>
<circle cx="266.5" cy="89.5" r="89.5" fill="#D66F2C"/>
<circle cx="101.5" cy="107.5" r="57.5" fill="#D9D9D9"/>
<circle cx="431.5" cy="107.5" r="57.5" fill="#D9D9D9"/>
<path d="M236 195C240.8 197 259.667 198.833 268.5 199.5V374H136.5C114.9 374 109.5 355.333 109.5 346V310.5C109.5 293.5 118.5 267 136 242C153.5 217 188.5 203 197 199.5C205.5 196 230 192.5 236 195Z" fill="#D66F2C"/>
<path d="M299.5 195C294.7 197 275.833 198.833 267 199.5V374H399C420.6 374 426 355.333 426 346V310.5C426 293.5 417 267 399.5 242C382 217 347 203 338.5 199.5C330 196 305.5 192.5 299.5 195Z" fill="#D66F2C"/>
</svg>
