<svg width="607" height="389" viewBox="0 0 607 389" fill="none" xmlns="http://www.w3.org/2000/svg">
<path d="M217.5 258.5H229.5H325V12.0002C293.167 11.8335 227.9 11.6002 221.5 12.0002C213.5 12.5002 138.5 17.5002 99 33.0002C67.4 45.4002 53.1667 88.1668 50 108C34.5 165.833 2.99991 286.7 0.999911 307.5C-1.50009 333.5 16.4999 382 61.4999 388C97.4999 392.8 120.833 368 128 355C143.167 335.167 175.9 292 185.5 278C195.1 264 210.833 259.167 217.5 258.5Z" fill="#B388FF"/>
<path d="M389.5 258.5H377.5H282V12.0002C313.833 11.8335 379.1 11.6002 385.5 12.0002C393.5 12.5002 468.5 17.5002 508 33.0002C539.6 45.4002 553.833 88.1668 557 108C572.5 165.833 604 286.7 606 307.5C608.5 333.5 590.5 382 545.5 388C509.5 392.8 486.167 368 479 355C463.833 335.167 431.1 292 421.5 278C411.9 264 396.167 259.167 389.5 258.5Z" fill="#B388FF"/>
<rect x="148" y="75" width="37" height="128" rx="9" fill="#FBEDD0"/>
<rect x="231" y="119.5" width="37" height="128" rx="9" transform="rotate(90 231 119.5)" fill="#FBEDD0"/>
<circle cx="396.5" cy="135.5" r="21.5" fill="#FBEDD0"/>
<circle cx="492.5" cy="135.5" r="21.5" fill="#FBEDD0"/>
<circle cx="444.5" cy="87.5" r="21.5" fill="#FBEDD0"/>
<circle cx="444.5" cy="183.5" r="21.5" fill="#FBEDD0"/>
<rect x="98" y="11.7559" width="101" height="40" rx="13" transform="rotate(-6.68399 98 11.7559)" fill="#B388FF"/>
</svg>
