<svg width="722" height="665" viewBox="0 0 722 665" fill="none" xmlns="http://www.w3.org/2000/svg">
<circle cx="484" cy="413" r="172" fill="#FBF4E5"/>
<rect x="538.719" y="440" width="259" height="59" rx="29.5" transform="rotate(45 538.719 440)" fill="#FBF4E5"/>
<path d="M0 69C0 30.8924 30.8924 0 69 0H485C523.108 0 554 30.8924 554 69V223C554 223 470.998 207.92 421.5 223C371.715 238.167 329.5 280.5 329.5 280.5C312 300.5 295.687 329 283 378.5C270.313 428 286.414 477.514 304 510.5C323.993 548 347.136 568.625 377 584.5C395.954 594.575 425.471 601.17 441.052 604.156C447.055 605.306 451.5 610.515 451.5 616.628C451.5 623.461 445.961 629 439.128 629H311H69C30.8923 629 0 598.108 0 560V69Z" fill="#5C2E91"/>
<rect x="76" y="105" width="332" height="42" rx="21" fill="#FBF4E5"/>
<rect x="76" y="199" width="263" height="42" rx="21" fill="#FBF4E5"/>
<rect x="76" y="294" width="181" height="42" rx="21" fill="#FBF4E5"/>
</svg>
