<svg width="426" height="562" viewBox="0 0 426 562" fill="none" xmlns="http://www.w3.org/2000/svg">
<path d="M263.076 491.28C266.324 482.264 275.555 482.114 279.765 483.166C287.734 485.119 309.806 488.665 334.344 487.223C358.881 485.78 367.121 464.684 368.173 454.316V437.637C368.173 435.473 368.775 432.828 369.075 431.776C368.925 431.476 370.699 427.99 378.999 416.45C389.373 402.025 346.973 390.755 344.267 390.304C342.102 389.944 341.561 388.351 341.561 387.6V379.486C341.561 376.24 344.267 374.527 345.62 374.076C351.785 372.123 366.459 367.314 375.841 363.708C385.223 360.102 385.765 354.693 384.863 352.439C384.261 347.63 382.968 337.382 382.607 334.858C382.246 332.334 383.96 332.304 384.863 332.604L414.633 325.392C416.888 323.889 422.12 319.531 425.007 314.122C427.894 308.713 423.804 298.946 421.399 294.738L378.097 224.867C375.24 220.96 370.158 211.253 372.684 203.68C375.841 194.214 377.195 174.379 372.684 141.472C368.173 108.565 336.786 51.4798 287.884 31.9321C240.523 13 229.697 13 202.182 13C138.174 13 68.6681 44.1031 29.4257 100.902C-9.81667 157.7 -0.344367 229.375 5.06838 257.323C10.4811 285.272 15.8939 293.386 39.8002 337.112C63.7065 380.838 61.0001 408.336 59.1958 424.113C57.3916 439.89 40.7022 506.155 34.3874 534.555C29.3355 557.274 47.6185 562.053 57.3915 561.602C112.12 561.902 224.194 562.323 234.659 561.602C245.124 560.88 248.642 551.685 249.093 547.177C252.401 532.301 259.828 500.295 263.076 491.28Z" fill="#E85C41"/>
<circle cx="182.668" cy="264.665" r="91" transform="rotate(-3.95973 182.668 264.665)" fill="#FFC670"/>
<rect x="118.893" y="9.46045" width="88" height="225" rx="20" transform="rotate(-3.95973 118.893 9.46045)" fill="#FFC670"/>
</svg>
