<svg width="560" height="707" viewBox="0 0 560 707" fill="none" xmlns="http://www.w3.org/2000/svg">
<path d="M220.5 324.5C250.5 334.9 272.333 355.5 279.5 364.5V251.5C242 251.5 241.5 242.5 216.5 237.5C191.5 232.5 180.5 238 146.5 251.5C119.3 262.3 103.167 284.333 98.5 294C126.667 299.833 190.5 314.1 220.5 324.5Z" fill="#FFC670"/>
<path d="M338 324.5C308 334.9 286.167 355.5 279 364.5V251.5C316.5 251.5 317 242.5 342 237.5C367 232.5 378 238 412 251.5C439.2 262.3 455.333 284.333 460 294C431.833 299.833 368 314.1 338 324.5Z" fill="#FFC670"/>
<path d="M0 327.197C0 308.159 18.0346 294.285 36.4366 299.167L196 341.5C196 341.5 217.5 349.5 234.5 359.5C247.831 367.342 261.109 372.827 266 387.5C273 408.5 273 439 273 439V669.5V684.717C273 694.214 262.565 700.014 254.5 695L217.5 674.5L21.7086 623.639C8.92488 620.318 0 608.779 0 595.571V327.197Z" fill="#E85C41"/>
<path d="M560 327.197C560 308.159 541.965 294.285 523.563 299.167L364 341.5C364 341.5 342.5 349.5 325.5 359.5C312.169 367.342 298.891 372.827 294 387.5C287 408.5 287 439 287 439V669.5V684.717C287 694.214 297.435 700.014 305.5 695L342.5 674.5L538.291 623.639C551.075 620.318 560 608.779 560 595.571V327.197Z" fill="#E85C41"/>
<circle cx="277.5" cy="113.5" r="113.5" fill="#FFC670"/>
</svg>
