<svg width="721" height="582" viewBox="0 0 721 582" fill="none" xmlns="http://www.w3.org/2000/svg">
<path d="M263.076 511.28C266.324 502.264 275.555 502.114 279.765 503.166C287.734 505.119 309.806 508.665 334.344 507.223C358.881 505.78 367.121 484.684 368.173 474.316V457.637C368.173 455.473 368.775 452.828 369.075 451.776C368.925 451.476 370.699 447.99 378.999 436.45C389.373 422.025 346.973 410.755 344.267 410.304C342.102 409.944 341.561 408.351 341.561 407.6V399.486C341.561 396.24 344.267 394.527 345.62 394.076C351.785 392.123 366.459 387.314 375.841 383.708C385.223 380.102 385.765 374.693 384.863 372.439C384.261 367.63 382.968 357.382 382.607 354.858C382.246 352.334 383.96 352.304 384.863 352.604L414.633 345.392C416.888 343.889 422.12 339.531 425.007 334.122C427.894 328.713 423.804 318.946 421.399 314.738L378.097 244.867C375.24 240.96 370.158 231.253 372.684 223.68C375.841 214.214 377.195 194.379 372.684 161.472C368.173 128.565 336.786 71.4798 287.884 51.9321C240.523 33 229.697 33 202.182 33C138.174 33 68.6681 64.1031 29.4257 120.902C-9.81667 177.7 -0.344367 249.375 5.06838 277.323C10.4811 305.272 15.8939 313.386 39.8002 357.112C63.7065 400.838 61.0001 428.336 59.1958 444.113C57.3916 459.89 40.7022 526.155 34.3874 554.555C29.3355 577.274 47.6185 582.053 57.3915 581.602C112.12 581.902 224.194 582.323 234.659 581.602C245.124 580.88 248.642 571.685 249.093 567.177C252.401 552.301 259.828 520.295 263.076 511.28Z" fill="#FFC670"/>
<ellipse cx="568.611" cy="142.47" rx="152.389" ry="142.47" fill="#3282B8"/>
<path d="M476.181 317.997C465.232 325.973 450.156 316.498 452.594 303.173L463.988 240.898C465.897 230.461 477.742 225.252 486.725 230.897L526.502 255.896C535.485 261.542 535.928 274.474 527.353 280.721L476.181 317.997Z" fill="#3282B8"/>
<rect x="478" y="91" width="178" height="24" rx="12" fill="#FBEDD0"/>
<rect x="478" y="131" width="163" height="23" rx="11.5" fill="#FBEDD0"/>
<rect x="478" y="170" width="120" height="24" rx="12" fill="#FBEDD0"/>
</svg>
