<svg width="741" height="531" viewBox="0 0 741 531" fill="none" xmlns="http://www.w3.org/2000/svg">
<path d="M241 2C327.4 4.8 365.333 41.1667 373.5 59L371 531C333 531 295.5 506.5 292.5 506C290.1 505.6 286.167 505.167 284.5 505H27.5H19.5C8.3 505 2.49994 495 0.999913 490V482.5C0.833247 346.333 0.599913 71.5 0.999913 61.5C1.39991 51.5 12.1666 48.3333 17.4999 48H24.9999H53.9999C62.9999 48 59.4999 40.5 59.4999 18.5C59.4999 0.9 75.4999 0.166669 83.4999 2C99.9999 0.833338 154.6 -0.799996 241 2Z" fill="#3282B8"/>
<path d="M500.5 2C414.1 4.8 376.167 41.1667 368 59L370.5 531C408.5 531 446 506.5 449 506C451.4 505.6 455.333 505.167 457 505H714H722C733.2 505 739 495 740.5 490V482.5C740.667 346.333 740.9 71.5 740.5 61.5C740.1 51.5 729.333 48.3333 724 48H716.5H687.5C678.5 48 682 40.5 682 18.5C682 0.9 666 0.166669 658 2C641.5 0.833338 586.9 -0.799996 500.5 2Z" fill="#3282B8"/>
<path d="M94.0001 409V43C93.8334 40.8334 93.5 36.3 93.5 35.5C93.5 34.7 94.8333 34.5 95.5 34.5C112 34.3334 163.4 34.1 237 34.5C310.6 34.9 346.667 72.6667 355.5 91.5V94.5V463.5C325.9 434.7 270.5 422.167 246.5 419.5H101C94.6001 419.5 93.6668 415.833 94.0001 414V409Z" fill="#FBF4E5"/>
<path d="M649.5 409V43C649.667 40.8334 650 36.3 650 35.5C650 34.7 648.667 34.5 648 34.5C631.5 34.3334 580.1 34.1 506.5 34.5C432.9 34.9 396.833 72.6667 388 91.5V94.5V463.5C417.6 434.7 473 422.167 497 419.5H642.5C648.9 419.5 649.833 415.833 649.5 414V409Z" fill="#FBF4E5"/>
<path d="M472.182 324H448.545L516.909 137.818H540.182L608.545 324H584.909L529.273 167.273H527.818L472.182 324ZM480.909 251.273H576.182V271.273H480.909V251.273Z" fill="#3282B8"/>
</svg>
