<svg width="521" height="473" viewBox="0 0 521 473" fill="none" xmlns="http://www.w3.org/2000/svg">
<path d="M428.667 98.2068C439.437 85.6155 458.374 84.1384 470.965 94.9076L497.564 117.657C510.155 128.426 511.632 147.364 500.863 159.955L487.345 175.76C483.396 180.376 476.453 180.918 471.836 176.969L416.359 129.521C411.743 125.572 411.201 118.628 415.15 114.011L428.667 98.2068Z" fill="#FBEDD0"/>
<rect width="382" height="473" rx="44" fill="#00A896"/>
<path d="M242.334 317.711C243.479 312.604 249.619 310.514 253.642 313.862L315.845 365.624C320.047 369.121 318.798 375.87 313.623 377.631L233.717 404.831C228.542 406.593 223.435 402.008 224.631 396.673L242.334 317.711Z" fill="#6C63FF"/>
<rect x="402.006" y="129.568" width="95" height="226.229" rx="11" transform="rotate(40.54 402.006 129.568)" fill="#6C63FF"/>
<rect x="71" y="107" width="239" height="26" rx="13" fill="#FBEDD0"/>
<rect x="71" y="188" width="196" height="22" rx="11" fill="#FBEDD0"/>
<rect x="71" y="265" width="143" height="22" rx="11" fill="#FBEDD0"/>
</svg>
